<svg width="117" height="117" viewBox="0 0 117 117" fill="none" xmlns="http://www.w3.org/2000/svg">
<path d="M58.5 0C46.9298 0 35.6194 3.43096 25.9992 9.85902C16.3789 16.2871 8.8808 25.4235 4.45307 36.113C0.0253471 46.8025 -1.13315 58.5649 1.12409 69.9128C3.38132 81.2607 8.95291 91.6843 17.1343 99.8657C25.3156 108.047 35.7393 113.619 47.0872 115.876C58.4351 118.133 70.1975 116.975 80.887 112.547C91.5765 108.119 100.713 100.621 107.141 91.0008C113.569 81.3806 117 70.0702 117 58.5C117 42.9848 110.837 28.1051 99.8658 17.1342C88.8949 6.16337 74.0152 0 58.5 0ZM91.4062 44.8987C91.4062 46.2004 91.0203 47.4728 90.2971 48.5551C89.574 49.6374 88.5461 50.4809 87.3435 50.979C86.141 51.4771 84.8177 51.6075 83.5411 51.3535C82.2644 51.0996 81.0918 50.4728 80.1714 49.5524C79.251 48.632 78.6241 47.4593 78.3702 46.1827C78.1163 44.906 78.2466 43.5828 78.7447 42.3802C79.2428 41.1776 80.0864 40.1498 81.1687 39.4266C82.2509 38.7035 83.5234 38.3175 84.825 38.3175C86.5705 38.3175 88.2444 39.0109 89.4786 40.2451C90.7129 41.4793 91.4062 43.1533 91.4062 44.8987ZM34.5516 51.48C33.2499 51.48 31.9775 51.094 30.8952 50.3708C29.813 49.6477 28.9694 48.6198 28.4713 47.4173C27.9732 46.2147 27.8428 44.8914 28.0968 43.6148C28.3507 42.3382 28.9775 41.1655 29.8979 40.2451C30.8183 39.3247 31.991 38.6979 33.2676 38.4439C34.5443 38.19 35.8675 38.3203 37.0701 38.8185C38.2727 39.3166 39.3005 40.1601 40.0237 41.2424C40.7468 42.3247 41.1328 43.5971 41.1328 44.8987C41.133 45.7754 40.9581 46.6434 40.6182 47.4515C40.2784 48.2597 39.7805 48.9918 39.1538 49.6049C38.5271 50.2179 37.7842 50.6996 36.9688 51.0216C36.1534 51.3436 35.2818 51.4995 34.4053 51.48H34.5516ZM85.7391 79.0115C86.3209 79.7873 86.5707 80.7624 86.4336 81.7224C86.2964 82.6823 85.7836 83.5485 85.0078 84.1303C84.2321 84.7121 83.257 84.9619 82.297 84.8248C81.337 84.6877 80.4709 84.1748 79.8891 83.399C77.4764 80.17 74.3352 77.5565 70.7212 75.7713C67.1072 73.9862 63.1227 73.0798 59.0922 73.1262C55.0616 73.1725 51.099 74.1702 47.527 76.0379C43.955 77.9057 40.8747 80.5907 38.5369 83.8744C37.9745 84.6647 37.1211 85.1992 36.1646 85.3603C35.2081 85.5214 34.2267 85.296 33.4364 84.7336C32.6461 84.1711 32.1116 83.3178 31.9505 82.3613C31.7893 81.4048 32.0148 80.4234 32.5772 79.6331C35.5822 75.4117 39.5417 71.9596 44.1333 69.5579C48.7249 67.1563 53.8188 65.8729 59.0002 65.8123C64.1816 65.7517 69.3041 66.9157 73.9505 69.2093C78.597 71.503 82.6361 74.8615 85.7391 79.0115Z" fill="#A81D3F"/>
</svg>
