<svg width="45" height="51" viewBox="0 0 45 51" fill="none" xmlns="http://www.w3.org/2000/svg">
<path d="M19.045 34.0014C19.9819 32.0222 21.7693 31.0494 22.5294 30.6911C20.4533 33.0976 19.9451 35.124 19.9975 36.6946C20.1629 41.6412 25.9801 44.7497 24.7896 47.4735C24.3935 48.3794 23.3917 48.8548 22.5833 49.1172C23.1262 48.7268 23.7889 48.1087 23.9621 47.2412C24.4448 44.8244 20.3402 43.5924 18.9381 39.3385C18.6659 38.512 17.967 36.2782 19.0444 34.0014H19.045ZM25.3071 21.1836C18.7976 18.802 15.1281 12.9542 16.1267 7.74566C17.0455 2.95299 21.5784 0.462031 22.3417 0.0570679C22.0581 0.168031 21.594 0.358327 21.0418 0.630549C20.5917 0.852994 12.7444 4.84455 13.1001 10.4808C13.1452 11.1928 13.3532 12.4393 14.3757 13.9388C11.2993 13.4317 10.9913 9.3764 11.3061 8.53951C8.06169 15.7765 15.9261 22.9663 25.3071 21.1841V21.1836ZM32.2293 48.886C30.9569 48.804 30.2346 47.5783 30.135 46.6688C29.9878 45.3248 31.1285 44.1866 32.2397 43.7448C33.5241 43.2341 34.7265 43.6707 35.0117 43.7827C33.5422 42.5922 30.5908 43.0806 29.617 44.408C31.1389 40.7343 27.4429 39.7709 25.7821 36.3098C23.7147 32.4417 27.0032 30.0487 30.5182 29.3326C22.8032 29.1066 21.7117 34.7102 25.3761 39.8316C27.8115 42.6819 28.9855 44.6056 26.9171 47.6493C27.011 47.5995 28.2938 46.9368 28.9419 47.3999C29.5683 47.8474 29.5901 49.3381 28.4167 50.8066C29.0352 50.8356 29.924 50.846 30.988 50.748C32.5731 50.6017 33.3773 50.5183 33.9342 50.0013C34.8675 49.1348 34.6679 47.6477 34.5912 47.2039C34.2458 48.2694 33.2404 48.9508 32.2293 48.8854V48.886ZM39.6867 27.9466C39.473 27.8289 39.1044 27.5904 38.8015 27.1642C38.4023 26.6037 38.3468 26.0431 38.3375 25.801C37.4664 26.0551 36.8763 26.892 37.5322 27.8834C38.2504 27.9041 38.9685 27.9248 39.6867 27.9461V27.9466ZM43.9235 30.2577C43.6466 29.524 42.9373 28.8323 42.7091 28.4065C41.9847 27.4696 42.174 25.8544 42.188 25.6169C42.2481 24.5633 40.4328 22.6572 31.9887 18.9171C32.291 19.4803 32.5933 20.0434 32.8956 20.6065C30.9216 19.8225 28.3607 18.5822 25.697 16.616C23.3512 14.8841 21.6106 13.0952 20.3729 11.6221C21.2647 13.2834 22.7441 15.5551 25.1324 17.7562C28.678 21.0239 32.4554 22.5027 34.6342 23.1757C34.5932 22.692 34.5523 22.2077 34.5113 21.7239C37.5587 23.0062 41.8333 24.7634 40.4738 28.0768C42.7133 29.148 43.5688 31.6151 41.9246 33.0789C40.9316 28.951 34.629 28.8654 32.1308 30.2317C36.6315 29.3938 40.5256 30.659 40.9726 34.8694C42.1802 34.663 44.7401 32.6916 43.9245 30.2587L43.9235 30.2577ZM35.8978 44.4013C36.9862 44.5029 38.0549 46.1451 37.0028 47.3278C39.3097 46.6786 38.1067 43.4954 35.8978 44.4013ZM33.4281 44.4749C34.4439 44.6393 36.1509 46.2353 35.7179 47.8806C37.6162 46.31 35.9424 43.8688 33.4281 44.4749ZM18.4466 43.2528C18.1116 42.9391 14.0573 39.016 15.0347 33.6477C15.5953 30.5677 17.5153 28.643 18.2786 27.9534C17.1975 28.6046 14.1024 30.2722 9.94495 29.9077C4.59125 29.4379 1.38784 25.9405 0.69873 25.1518C1.21206 26.1111 3.3411 29.8195 7.87347 31.3424C10.4547 32.2099 12.7247 32.002 13.9562 31.7909C13.4797 32.5226 12.551 34.1901 12.704 36.3347C12.9192 39.3452 15.1773 42.0498 18.4461 43.2528H18.4466ZM3.52051 15.5898C3.39762 17.7712 3.82799 19.6825 4.37866 21.1966C4.05303 21.168 3.44895 21.0706 2.83606 20.6817C1.84829 20.0548 1.53303 19.1126 1.45214 18.8363C1.47184 19.85 1.66888 23.5029 4.43414 25.7123C8.03525 28.5906 14.7869 28.0571 19.7527 23.3443C18.7048 23.3251 12.1118 23.1057 8.39458 18.17C6.83384 16.098 6.50562 14.1556 6.44651 13.7729C5.42606 7.1924 12.605 2.15655 12.957 1.91699C11.8298 2.58588 3.98251 7.40655 3.52103 15.5898H3.52051Z" fill="white"/>
</svg>
