<svg width="59" height="58" viewBox="0 0 59 58" fill="none" xmlns="http://www.w3.org/2000/svg">
    <path
        d="M25.5944 57.9752C25.6028 57.9607 26.1521 56.8742 26.8147 55.5605L28.0196 53.1721L28.4104 53.1811L28.8011 53.1902L29.854 55.2655C30.4334 56.4071 30.9827 57.4889 31.0752 57.67L31.2435 57.9993H30.4259L30.1281 57.4003L29.8303 56.8013H26.9716L26.6817 57.392L26.3918 57.9827L25.9852 57.9922C25.7614 57.9973 25.5856 57.9898 25.594 57.9752H25.5944ZM29.5382 56.2024C29.4567 56.0149 28.4395 53.9605 28.4179 53.94C28.4029 53.9254 28.172 54.3582 27.9055 54.9016C27.639 55.4451 27.3817 55.9696 27.3337 56.0673L27.2469 56.2445H28.4016C29.31 56.2445 29.5523 56.2354 29.5382 56.2024ZM33.3035 57.9646C33.2894 57.9441 32.7537 56.8616 32.1132 55.5589L30.9484 53.1906L31.3493 53.1811C31.5695 53.176 31.7629 53.1835 31.7788 53.1981C31.7947 53.2126 32.2352 54.0979 32.7577 55.1651C33.2802 56.2323 33.7115 57.1089 33.7154 57.1128C33.7198 57.1168 34.1516 56.2512 34.6754 55.1891C35.1992 54.127 35.6411 53.2386 35.6578 53.2146C35.6798 53.1827 35.7886 53.1736 36.0653 53.1807L36.4429 53.1906L35.2688 55.5868L34.0947 57.9831L33.7119 57.9926C33.4621 57.9989 33.3198 57.989 33.3031 57.965L33.3035 57.9646ZM36.1635 57.9756C36.1719 57.9611 36.7213 56.8746 37.3839 55.5609L38.5888 53.1725L38.9795 53.1815L39.3703 53.1906L40.4232 55.2659C41.0025 56.4075 41.5519 57.4893 41.6444 57.6704L41.8127 57.9997H40.995L40.6972 57.4007L40.3994 56.8017H37.5407L37.2508 57.3924L36.9609 57.9831L36.5543 57.9926C36.3305 57.9977 36.1547 57.9902 36.1631 57.9756H36.1635ZM40.1073 56.2027C40.0258 56.0153 39.0086 53.9609 38.987 53.9404C38.972 53.9258 38.7412 54.3586 38.4747 54.902C38.2081 55.4455 37.9508 55.97 37.9028 56.0677L37.816 56.2449H38.9707C39.8791 56.2449 40.1214 56.2358 40.1073 56.2027ZM42.6466 55.5868V53.174H43.2696L44.8736 54.958L46.4776 56.7419L46.4873 54.958L46.497 53.174H47.2512V58H46.6283L45.0242 56.2161L43.4202 54.4322L43.4105 56.2161L43.4008 58H42.6466V55.5872V55.5868ZM48.3843 57.7516V57.5031L50.0557 55.6506L51.7272 53.7982L50.0742 53.7896L48.4213 53.7809V53.174H52.762V53.6639L51.0963 55.5199L49.4306 57.3759L51.1531 57.3845L52.8757 57.3932V58H48.3839V57.7516H48.3843ZM53.1122 57.9756C53.1206 57.9611 53.67 56.8746 54.3325 55.5609L55.5374 53.1725L55.9282 53.1815L56.319 53.1906L57.3719 55.2659C57.9512 56.4075 58.5005 57.4893 58.5931 57.6704L58.7614 57.9997H57.9437L57.6459 57.4007L57.3481 56.8017H54.4894L54.1995 57.3924L53.9096 57.9831L53.503 57.9926C53.2792 57.9977 53.1034 57.9902 53.1118 57.9756H53.1122ZM57.056 56.2027C56.9745 56.0153 55.9573 53.9609 55.9357 53.9404C55.9207 53.9258 55.6899 54.3586 55.4233 54.902C55.1568 55.4455 54.8995 55.97 54.8515 56.0677L54.7647 56.2449H55.9194C56.8278 56.2449 57.0701 56.2358 57.056 56.2027ZM1.27627 47.9767V44.4333H2.74857V50.4064H6.90071V51.5201H1.27627V47.9767ZM8.07081 47.9767V44.4333H9.54311V51.5201H8.07081V47.9767ZM11.6569 47.9767V44.4333H13.6856C15.7592 44.4333 16.1456 44.451 16.6645 44.5695C17.3267 44.7208 17.8853 45.0874 18.1109 45.5186C18.5201 46.3007 18.2346 47.3033 17.4787 47.7408L17.3179 47.8337L17.5928 47.9507C17.9183 48.0889 18.2677 48.3662 18.4408 48.6237C18.5977 48.8572 18.7153 49.2691 18.7153 49.5869C18.7153 50.6746 17.8941 51.3252 16.3183 51.485C16.1257 51.5047 15.0411 51.5197 13.8177 51.5197H11.6569V47.9767ZM16.4566 50.38C16.776 50.284 17.0584 50.0662 17.1557 49.8401C17.2408 49.6432 17.243 49.2589 17.1602 49.0876C17.0747 48.9104 16.8857 48.7336 16.6941 48.6505C16.298 48.4792 16.2236 48.4721 14.6292 48.4575L13.1287 48.4437V50.4769L14.6671 50.4659C16.1421 50.4553 16.2156 50.4517 16.4566 50.3793V50.38ZM15.6429 47.4006C16.061 47.3486 16.3161 47.2533 16.528 47.0702C16.7703 46.8607 16.8588 46.6086 16.8002 46.2987C16.7319 45.9388 16.5306 45.7364 16.0791 45.5741C15.8733 45.5001 15.8183 45.4969 14.4975 45.4867L13.1292 45.4761V47.4372H14.2398C14.8508 47.4372 15.4821 47.4206 15.6429 47.401V47.4006ZM20.3012 47.9767V44.4333H26.0764V45.5469H21.7731V47.3694H25.5856V48.4492H21.7731V50.4064H26.2275V51.5201H20.3012V47.9767ZM27.8883 47.9743V44.4286L29.8985 44.4423C32.0925 44.4573 32.1215 44.4597 32.7656 44.67C33.6234 44.9499 34.2102 45.5052 34.4419 46.2562C34.5362 46.5622 34.5388 47.3328 34.4463 47.6392C34.2529 48.2803 33.7749 48.8029 33.1176 49.0923C32.9819 49.1522 32.8709 49.2057 32.8709 49.2116C32.8709 49.2175 33.27 49.7311 33.7582 50.3525C34.2458 50.9739 34.6454 51.4909 34.6454 51.5012C34.6454 51.5114 34.2925 51.5197 33.8617 51.5197H33.078L32.2704 50.4903L31.4629 49.4609H29.3606V51.5197H27.8883V47.9739V47.9743ZM31.685 48.3315C32.2691 48.2315 32.6696 47.9936 32.8722 47.6254C33.2652 46.9115 32.9819 46.0609 32.248 45.7525C31.8493 45.5848 31.7105 45.569 30.5025 45.5548L29.3606 45.5414V48.3815H30.3765C31.118 48.3815 31.4713 48.3681 31.685 48.3315ZM37.6649 48.5335V45.5469H35.0225V44.4333H41.7792V45.5469H39.1368V51.5201H37.6645V48.5335H37.6649ZM41.6677 50.8538C41.8523 50.4872 42.6537 48.8931 43.4484 47.3112L44.8934 44.4349H45.6296L46.3657 44.4356L48.1208 47.9153C49.0861 49.8291 49.8883 51.4236 49.9033 51.4583C49.9297 51.5193 49.9002 51.5213 49.1544 51.5126L48.3781 51.5035L48.1336 50.9975C47.9993 50.7191 47.8204 50.3509 47.7367 50.1792L47.5843 49.8669H45.63C44.1114 49.8669 43.6678 49.8764 43.6392 49.9091C43.6189 49.9323 43.4361 50.3044 43.2325 50.736L42.8625 51.5205H41.332L41.6677 50.8538ZM47.0437 48.7277C46.7657 48.1326 45.6511 45.8281 45.6309 45.808C45.6119 45.7887 44.337 48.4028 44.174 48.7954C44.1506 48.8509 44.2357 48.8545 45.626 48.8545H47.1027L47.0437 48.7281V48.7277ZM50.9518 47.9767V44.4333H52.8673C54.0255 44.4333 54.9171 44.4479 55.1229 44.4703C56.1207 44.579 57.0282 44.9496 57.6472 45.5009C58.3671 46.142 58.7279 46.9686 58.7279 47.9763C58.7279 48.7887 58.5023 49.4609 58.0305 50.0516C57.412 50.827 56.352 51.3484 55.1229 51.4823C54.9176 51.5047 54.0255 51.5193 52.8673 51.5193H50.9518V47.9759V47.9767ZM55.2361 50.3107C56.2586 50.0603 56.9009 49.5074 57.1661 48.6497C57.26 48.3465 57.26 47.6069 57.1661 47.3037C56.9009 46.446 56.2586 45.8931 55.2361 45.6426C54.9603 45.5749 54.826 45.5674 53.6792 45.5548L52.4241 45.541V50.4115L53.6792 50.3978C54.826 50.3852 54.9603 50.3777 55.2361 50.3099V50.3107ZM1.23926 40.6197V38.5275H1.91858V42.206H4.44776V42.712H1.23926V40.6197ZM4.56098 42.6994C4.56098 42.6911 5.03369 41.7527 5.61124 40.6142L6.6615 38.5444L7.00072 38.535L7.33994 38.5255L8.39153 40.5937C8.96996 41.7314 9.44972 42.6734 9.45809 42.6872C9.46646 42.701 9.31227 42.7124 9.11578 42.7124H8.75894L8.50254 42.189L8.24614 41.6657L7.00116 41.6747L5.75618 41.6838L5.50507 42.1898L5.25395 42.6958L4.90769 42.7057C4.71737 42.7112 4.56142 42.7084 4.56142 42.7002L4.56098 42.6994ZM7.99591 41.1774C7.99591 41.1498 7.04389 39.2202 7.01702 39.1934C6.99543 39.1721 6.78045 39.5919 6.08306 41.0159L5.99628 41.1931H6.99632C7.54612 41.1931 7.99635 41.186 7.99635 41.1774H7.99591Z"
        fill="black" />
    <path
        d="M15.317 11.1862C11.5767 10.6363 7.63479 9.03145 4.92617 6.24156C3.2563 4.52128 2.14512 2.44778 1.59305 0.0210503C1.5914 0.0115388 1.59719 0.00202731 1.60671 0.000297946C1.61333 -0.000999075 1.61995 0.00202731 1.62368 0.00764773C2.58877 1.61422 3.86259 3.01198 5.23324 4.24977C6.07914 5.01371 6.95691 5.73616 7.86613 6.41623C10.2586 8.20568 12.7466 9.78027 15.3303 11.1408C15.4138 11.1849 15.4093 11.2001 15.317 11.1862Z"
        fill="#61439D" />
    <path
        d="M41.8825 13.5327C43.0889 10.7039 43.4506 7.54611 43.0314 4.49379C43.0202 4.41122 43.0306 4.40819 43.0624 4.48428C43.6207 5.80595 43.9919 7.20889 44.1761 8.69354C44.2634 9.3961 44.2601 10.1631 44.1666 10.9953C43.8558 13.7627 42.1495 16.0485 39.7103 17.1186C39.6602 17.1406 39.6536 17.1311 39.6904 17.0892C40.6091 16.0515 41.3334 14.8211 41.8825 13.5327Z"
        fill="#B23C8E" />
    <path
        d="M6.50335 11.2784C4.54421 10.4341 2.61899 9.1336 1.33359 7.35322C0.91188 6.76913 0.551007 6.10852 0.250141 5.37095C0.23069 5.32382 0.237312 5.3195 0.270006 5.35798C1.77392 7.13922 3.73472 8.48509 5.73732 9.59145C8.2953 11.0048 10.9497 12.1743 13.6997 13.1003C13.7034 13.1016 13.7055 13.1055 13.7043 13.1094C13.703 13.1129 13.7001 13.115 13.6968 13.115C11.2009 12.8811 8.80309 12.2689 6.50335 11.2784Z"
        fill="#61439D" />
    <path
        d="M38.817 5.82361C39.4704 6.86988 39.953 7.99094 40.2654 9.18636C41.0046 12.0173 40.1934 14.8574 38.0472 16.7553C37.9988 16.7981 37.9876 16.7891 38.0137 16.729C39.477 13.3485 39.8172 9.43193 38.8062 5.85128C38.8037 5.8422 38.8045 5.83313 38.8083 5.82405C38.8095 5.82145 38.8124 5.82059 38.8149 5.82189C38.8157 5.82189 38.8166 5.82318 38.817 5.82361Z"
        fill="#B23C8E" />
    <path
        d="M37.7863 12.5002C37.7449 13.9044 37.1953 15.3043 36.4946 16.4842C36.493 16.4881 36.4889 16.4894 36.4855 16.4877C36.4818 16.4859 36.4806 16.4816 36.4818 16.4782C36.8431 15.147 36.9743 13.7881 36.8754 12.4016C36.7773 11.019 36.5054 9.7371 36.0605 8.55551C36.015 8.43446 35.9103 8.17462 35.746 7.77557C35.7435 7.76909 35.7464 7.76131 35.753 7.75871C35.7572 7.75698 35.7617 7.75785 35.765 7.76044C35.8995 7.87155 36.0398 8.00688 36.1851 8.16641C37.3016 9.39209 37.8355 10.837 37.7863 12.5002Z"
        fill="#B23C8E" />
    <path
        d="M30.8057 16.4548C27.771 12.5945 22.7808 11.1768 18.2894 12.9148C18.2769 12.9196 18.2629 12.9148 18.2562 12.9023L17.7869 12.051C17.7791 12.0368 17.784 12.019 17.7977 12.0108C17.7989 12.01 17.8006 12.0095 17.8018 12.0087C22.7845 10.0562 28.2316 11.5871 31.6102 15.8643C31.6197 15.8768 31.6185 15.8876 31.6061 15.8967L30.8334 16.4587C30.8231 16.4661 30.814 16.4648 30.8057 16.4548Z"
        fill="#B23C8E" />
    <path
        d="M16.6921 11.6245C17.3717 13.4028 18.3355 15.0608 19.4442 16.6302C21.0607 18.9185 22.8456 21.0681 24.799 23.0794C24.8044 23.0846 24.8048 23.0932 24.7998 23.0988C24.7957 23.1036 24.7886 23.1045 24.7832 23.1014C22.0606 21.5031 19.6052 19.1403 18.0885 16.2549C17.3435 14.8381 16.8759 13.3267 16.6859 11.7205C16.683 11.6933 16.6847 11.6591 16.6913 11.6181V11.6172V11.6206C16.6913 11.6206 16.6913 11.6232 16.6921 11.6245Z"
        fill="#61439D" />
    <path
        d="M0.474501 11.863C2.01235 12.9278 3.77823 13.6546 5.54784 14.1751C7.87861 14.8608 10.2615 15.3239 12.6966 15.5638C12.7032 15.5647 12.7082 15.5707 12.7078 15.5781C12.7074 15.5837 12.7036 15.588 12.6983 15.5893C10.9225 16.0243 9.12222 16.1457 7.29716 15.9533C6.4703 15.8664 5.63764 15.6732 4.79878 15.3744C3.05359 14.7523 1.64982 13.6572 0.588309 12.0882C0.541544 12.0186 0.499746 11.9473 0.462086 11.8742C0.451739 11.8539 0.455878 11.85 0.474501 11.863Z"
        fill="#2FB5E6" />
    <path
        d="M28.2666 20.7959C28.9921 19.2348 30.1972 17.9408 31.6188 17.0605C32.0777 16.7765 32.3149 16.6295 32.3302 16.6187C33.623 15.7363 34.8935 14.5568 35.3065 12.9364C35.3086 12.9278 35.314 12.9213 35.3219 12.917C35.3268 12.9144 35.3305 12.9131 35.3334 12.9131C35.3488 12.9131 35.3612 12.9256 35.3616 12.9416C35.3628 13.0916 35.3475 13.243 35.3152 13.3956C34.9722 15.0095 34.1172 16.5262 32.8202 17.4795C32.6927 17.5733 32.4655 17.7129 32.1381 17.8988C30.5647 18.7925 29.2358 19.9901 28.1511 21.4924C28.118 21.5383 28.0924 21.5612 28.0742 21.5612C28.0349 21.5612 28.0195 21.5413 28.0282 21.5011C28.0833 21.2542 28.1627 21.0195 28.2666 20.7959Z"
        fill="#B23C8E" />
    <path
        d="M10.262 19.3032C9.19015 19.49 7.97428 19.3399 7.01208 18.79C6.98518 18.7744 6.98684 18.7675 7.01788 18.7697C8.283 18.8471 9.59034 18.6149 10.8095 18.2751C12.2617 17.8704 13.6775 17.3438 15.0577 16.6949C15.061 16.6936 15.0647 16.6953 15.0659 16.6992C15.0668 16.7018 15.0659 16.7044 15.0647 16.7061C13.7462 17.9578 12.0387 18.9936 10.262 19.3032Z"
        fill="#2FB5E6" />
    <path
        d="M13.3099 19.9757C14.3023 19.408 15.2632 18.766 16.1927 18.0504C16.1956 18.047 16.2006 18.047 16.2039 18.0504C16.2072 18.0535 16.2072 18.0587 16.2043 18.0621C15.4234 19.3306 14.2865 20.4819 12.9858 21.1508C11.7935 21.7638 10.5359 21.9099 9.21279 21.5887C9.13209 21.5693 9.13292 21.5533 9.21486 21.5412C9.69658 21.4703 10.1907 21.3496 10.6968 21.1797C11.5208 20.9026 12.392 20.5014 13.3099 19.9761V19.9757Z"
        fill="#2FB5E6" />
    <path
        d="M29.2738 22.7238C30.2434 21.1207 31.5388 19.914 33.1606 19.1043C34.8102 18.2802 36.6589 18.0865 38.4624 18.3637C38.4674 18.365 38.4707 18.3702 38.4694 18.3758C38.4686 18.3797 38.4657 18.3827 38.462 18.3831C37.0425 18.5111 35.6739 18.9672 34.3831 19.5781C32.5647 20.4389 30.8617 21.5046 29.2738 22.7744C29.2701 22.7779 29.2643 22.7774 29.261 22.7731C29.2593 22.7709 29.2585 22.7688 29.2589 22.7662C29.2597 22.7528 29.2647 22.739 29.2738 22.7238Z"
        fill="#B23C8E" />
    <path
        d="M23.9126 19.1624C23.9676 19.3202 24.0723 19.5493 24.2267 19.8489C24.8321 21.0219 25.7074 21.8744 26.8529 22.4058C27.2043 22.5688 27.41 22.6669 27.4692 22.7006C28.536 23.3063 29.4486 24.2804 29.905 25.4689C29.9448 25.5722 29.9675 25.6708 29.9733 25.7642C29.9742 25.7824 29.9613 25.7979 29.9439 25.7992C29.9357 25.7997 29.9274 25.7966 29.9212 25.7906C29.3493 25.2476 28.8812 24.7153 28.2219 24.1702C27.8743 23.8827 27.506 23.6302 27.117 23.4127C27.0959 23.401 26.8947 23.3038 26.5144 23.1204C24.9935 22.3881 23.9792 20.9086 23.7379 19.1905C23.7218 19.0776 23.7255 18.9669 23.7483 18.8589C23.7507 18.8485 23.7607 18.842 23.7702 18.8442C23.7752 18.8455 23.7797 18.8485 23.7822 18.8532C23.8269 18.9367 23.8703 19.04 23.9126 19.1624Z"
        fill="#AD3459" />
    <path
        d="M17.4143 20.1883C17.4209 20.1814 17.4263 20.1762 17.4305 20.1732C17.4346 20.1697 17.4408 20.1706 17.4437 20.1749C17.4458 20.1775 17.4462 20.1809 17.4454 20.184C16.9703 21.8074 15.8562 23.2488 14.2302 23.6881C13.5101 23.8826 12.7255 23.8796 11.9942 23.7326C11.988 23.7313 11.9838 23.7248 11.9851 23.7183C11.9859 23.7136 11.9892 23.7097 11.9938 23.7093C13.1708 23.4568 14.2583 22.8584 15.276 22.0932C16.0387 21.5195 16.7513 20.8848 17.4143 20.1883Z"
        fill="#2FB5E6" />
    <path
        d="M11.0233 28.952C10.1827 26.9009 9.86491 24.7786 10.0702 22.5845C10.0718 22.5702 10.0826 22.5598 10.0958 22.5598H11.0978C11.111 22.5598 11.1218 22.5711 11.1218 22.5849C11.1218 22.5858 11.1218 22.5866 11.1218 22.5875C10.9273 24.6147 11.2124 26.5603 11.9772 28.4249C11.9834 28.4401 11.9801 28.4522 11.9677 28.4621L11.1193 29.1201C11.104 29.1322 11.0928 29.1288 11.0858 29.1098C11.0733 29.076 11.0527 29.0233 11.0233 28.952Z"
        fill="#EFB042" />
    <path
        d="M25.1261 25.865C25.0814 25.7613 25.0541 25.6571 25.0446 25.552C25.0434 25.5434 25.0492 25.5356 25.057 25.5343C25.0636 25.5334 25.0698 25.5369 25.0727 25.543C25.4369 26.2451 26.1355 26.5862 26.8672 26.6696C27.0166 26.6865 27.166 26.7042 27.3154 26.7224C28.0971 26.8166 28.7932 27.2174 29.3142 27.8296C29.3581 27.8811 29.3486 27.8962 29.2857 27.8754C28.6467 27.664 27.9804 27.5719 27.2864 27.5996C26.9454 27.613 26.6859 27.5728 26.4115 27.4241C25.8375 27.1119 25.3906 26.479 25.1261 25.865Z"
        fill="#AD3459" />
    <path
        d="M30.7345 28.8624C30.8856 28.258 30.8657 27.648 30.6083 27.0704C30.4303 26.6713 30.3604 26.2472 30.3981 25.7984C30.4059 25.7081 30.4246 25.6246 30.4548 25.5481C30.4593 25.5373 30.4717 25.5321 30.4821 25.5373C30.4883 25.5403 30.4928 25.5464 30.4941 25.5533C30.5706 26.073 30.7507 26.5044 31.0375 26.9351C31.2465 27.2485 31.294 27.6138 31.1806 28.0302C31.0942 28.3471 30.9551 28.6298 30.7635 28.878C30.7581 28.8858 30.7474 28.8871 30.7403 28.881C30.7349 28.8767 30.7325 28.8693 30.7345 28.8624Z"
        fill="#AD3459" />
    <path
        d="M30.2911 28.0304C30.1189 27.7153 29.7857 27.3417 29.422 27.2587C28.891 27.1377 28.593 26.7741 28.5285 26.1684C28.5268 26.1524 28.538 26.1377 28.5533 26.1359C28.5645 26.1346 28.5752 26.1403 28.581 26.1502C28.7424 26.4329 28.9725 26.6292 29.2709 26.7395C29.5813 26.8536 29.8503 26.8432 30.0564 27.1532C30.2472 27.4399 30.3494 27.7248 30.3631 28.0084C30.3684 28.1212 30.3444 28.1286 30.2911 28.0304Z"
        fill="#AD3459" />
    <path
        d="M9.68751 31.5265C10.3633 31.1737 10.8744 30.7595 11.4459 30.1927C12.8418 28.8084 14.4107 27.5632 16.1468 26.6717C16.1555 26.6674 16.1663 26.6717 16.1704 26.6808C16.1737 26.6882 16.1721 26.6968 16.1667 26.702C14.8022 28.0167 13.5268 29.424 12.3398 30.9247C12.0982 31.2303 11.9148 31.4448 11.7894 31.5689C10.3761 32.964 8.39962 33.063 6.65981 32.1923C6.65692 32.1914 6.65567 32.188 6.6565 32.1854C6.65733 32.1828 6.66023 32.181 6.66271 32.1815C7.72712 32.242 8.73525 32.0237 9.68751 31.5265Z"
        fill="#EFB042" />
    <path
        d="M22.586 32.1007C22.5235 32.1794 22.4709 32.2927 22.4064 32.3584C22.2421 32.5262 22.1047 32.4972 21.8787 32.4345C21.3887 32.2983 20.8863 32.786 21.0945 33.3187C21.1967 33.5806 21.4098 33.7017 21.7339 33.6822C21.7434 33.6814 21.7513 33.6887 21.7521 33.6987C21.7521 33.703 21.7513 33.7069 21.7488 33.7104C21.6056 33.914 21.4032 34.0056 21.157 33.9814C20.8114 33.9477 20.597 33.7687 20.5147 33.4445C20.4087 33.029 20.566 32.6096 20.8656 32.323C20.8818 32.3074 20.883 32.2815 20.8681 32.2642C20.8673 32.2633 20.8669 32.2624 20.866 32.262C20.597 31.9974 20.2486 31.7216 20.0251 31.5188C19.6113 31.1431 19.1229 30.7341 18.8179 30.3165C18.5344 29.9278 18.325 29.4946 18.1905 29.016C18.186 29.0009 18.1914 28.9948 18.2067 28.9978C18.9048 29.1453 19.6051 29.1582 20.3069 29.0376C20.5052 29.0039 20.7378 28.869 20.9409 28.7328C21.5257 28.3398 22.1726 27.9831 22.8811 27.6628C23.1881 27.524 23.4385 27.425 23.6326 27.3658C24.6308 27.0605 25.5661 27.1928 26.4381 27.7626C26.532 27.824 26.6152 27.8828 26.688 27.939C26.717 27.9615 26.7137 27.9702 26.6777 27.9645C25.9497 27.8474 25.216 27.8344 24.4764 27.9265C23.5035 28.0476 22.5595 28.7289 21.8771 29.4453C21.8671 29.4557 21.8655 29.4674 21.8725 29.4808C22.0575 29.8331 22.2446 30.1842 22.4337 30.5331C22.4862 30.6304 22.5293 30.5984 22.6133 30.6105C23.0317 30.6719 23.4493 30.6675 23.8664 30.5979C23.9024 30.5919 23.9629 30.5642 24.0485 30.5149C24.4317 30.294 24.7343 29.904 25.1311 29.7557C25.7647 29.5188 26.6723 29.9373 26.4232 30.7851C26.4178 30.8042 26.4095 30.8055 26.3987 30.789C26.2179 30.5089 26.018 30.3372 25.6691 30.4332C25.6244 30.4458 25.598 30.4933 25.61 30.54C25.612 30.5486 25.6153 30.5569 25.6199 30.5642C25.7929 30.8483 25.7941 31.1358 25.624 31.4267C25.612 31.4471 25.6054 31.4453 25.6042 31.4215C25.5864 31.1033 25.4792 30.7812 25.1167 30.8751C24.8808 30.9356 24.6507 31.2292 24.5 31.4388C24.4036 31.5729 24.435 31.8184 24.4466 31.9762C24.4479 31.9957 24.4413 31.9992 24.4268 31.9875C24.1652 31.7743 23.9645 31.5893 23.6206 31.7964C23.4157 31.9196 23.3061 32.1055 23.2912 32.3541C23.2552 32.9585 23.8921 33.0082 24.2997 32.9455C24.3175 32.9429 24.3212 32.949 24.3109 32.9641C23.9542 33.4808 23.3293 33.6213 22.8765 33.1453C22.6216 32.8772 22.5409 32.5374 22.634 32.1258C22.6373 32.1103 22.6278 32.0947 22.6125 32.0917C22.6025 32.0895 22.5926 32.093 22.586 32.1007ZM21.0597 29.7739C20.8127 29.6105 20.523 29.5884 20.2403 29.6113C20.225 29.6126 20.2167 29.6208 20.2146 29.6368C20.1853 29.8612 20.1662 30.086 20.1571 30.3117C20.1534 30.409 20.1662 30.5002 20.1956 30.5845C20.3872 31.1349 20.8147 31.757 21.3821 31.8807C21.4761 31.901 21.6904 31.9205 22.0256 31.9386C22.0381 31.9391 22.0455 31.933 22.0484 31.92C22.0948 31.7017 22.101 31.5115 22.067 31.3485C21.9449 30.7635 21.5613 30.1055 21.0597 29.7739Z"
        fill="#E26030" />
    <path
        d="M17.2624 27.6176C15.821 29.1771 14.5914 30.8861 13.4852 32.7175C13.3656 32.9151 13.1686 33.1594 12.8943 33.4503C11.6486 34.7694 9.91912 34.9795 8.32913 34.2489C8.32209 34.2454 8.31878 34.2363 8.32209 34.229C8.32457 34.2238 8.32954 34.2203 8.33492 34.2203C9.83015 34.2471 11.2438 33.3816 12.2561 32.2934C12.3695 32.1715 12.5491 31.9527 12.7945 31.6375C14.0261 30.056 15.5185 28.5476 17.2541 27.5805C17.2616 27.5761 17.2707 27.5787 17.2748 27.5865C17.2773 27.5913 17.2773 27.5973 17.2748 27.6025C17.2736 27.6055 17.2694 27.6103 17.2624 27.6176Z"
        fill="#EFB042" />
    <path
        d="M17.6537 28.681C17.0354 29.9551 16.4655 31.237 16.0173 32.5885C15.4694 34.2413 14.0288 34.9875 12.4318 34.5552C12.4148 34.5504 12.414 34.5439 12.4297 34.5357C12.6114 34.4367 12.8042 34.3373 12.9644 34.2201C13.6539 33.7147 14.2088 33.125 14.6297 32.4514C15.4206 31.1847 16.1725 29.9434 17.2738 28.9361C17.3872 28.8323 17.5088 28.7424 17.6388 28.6658C17.6595 28.6533 17.6644 28.6585 17.6537 28.681Z"
        fill="#EFB042" />
    <path
        d="M20.4817 36.4476C18.8064 36.2064 17.1953 35.5955 15.7585 34.6638C15.7518 34.6595 15.7502 34.6508 15.7539 34.6443C15.7539 34.6443 15.7543 34.6435 15.7547 34.643L16.3983 33.7533C16.4078 33.7399 16.4194 33.7377 16.433 33.7464C17.6841 34.5371 19.0332 35.0507 20.4804 35.2872C20.4957 35.2898 20.5032 35.2989 20.5032 35.3149V36.4277C20.5032 36.4429 20.4962 36.4498 20.4817 36.4476Z"
        fill="#E26030" />
</svg>
    