<svg width="177" height="67" viewBox="0 0 177 67" fill="none" xmlns="http://www.w3.org/2000/svg">
    <g id="g188">
        <path id="path293"
            d="M74.7998 66.9147C74.8255 66.8647 76.5128 63.1314 78.5479 58.6174L82.2487 50.4108L83.4489 50.4419L84.6491 50.473L87.883 57.604C89.6624 61.5266 91.3497 65.2436 91.6339 65.8661L92.1508 66.9973H89.6394L88.7247 64.9392L87.81 62.8811H79.0296L78.1393 64.9108L77.2489 66.9405L76 66.9729C75.3126 66.9905 74.7727 66.9648 74.7984 66.9147H74.7998ZM86.9129 60.823C86.6626 60.1789 83.5382 53.1197 83.4719 53.0494C83.4259 52.9993 82.7169 54.4864 81.8982 56.3537C81.0796 58.221 80.2894 60.0233 80.1419 60.3589L79.8753 60.9678H83.4218C86.212 60.9678 86.9562 60.9367 86.9129 60.823ZM98.478 66.8782C98.4347 66.8079 96.7893 63.0881 94.8218 58.612L91.2442 50.4744L92.4755 50.4419C93.1521 50.4243 93.7461 50.45 93.7948 50.5001C93.8435 50.5502 95.1966 53.592 96.8014 57.2589C98.4062 60.9259 99.7309 63.9379 99.7431 63.9514C99.7566 63.965 101.083 60.9908 102.692 57.3415C104.3 53.6921 105.658 50.6395 105.709 50.5569C105.777 50.4473 106.111 50.4162 106.961 50.4406L108.12 50.4744L104.514 58.7081L100.908 66.9418L99.7323 66.9743C98.9651 66.9959 98.528 66.9621 98.4766 66.8796L98.478 66.8782ZM107.262 66.9161C107.288 66.866 108.975 63.1328 111.011 58.6188L114.711 50.4122L115.911 50.4433L117.112 50.4744L120.346 57.6053C122.125 61.528 123.812 65.245 124.096 65.8674L124.613 66.9986H122.102L121.187 64.9406L120.273 62.8825H111.492L110.602 64.9121L109.712 66.9418L108.463 66.9743C107.775 66.9919 107.235 66.9662 107.261 66.9161H107.262ZM119.375 60.8244C119.125 60.1803 116.001 53.1211 115.934 53.0507C115.888 53.0007 115.179 54.4877 114.361 56.355C113.542 58.2223 112.752 60.0247 112.604 60.3603L112.338 60.9692H115.884C118.675 60.9692 119.419 60.938 119.375 60.8244ZM127.175 58.7081V50.4176H129.088L134.015 56.5472L138.941 62.6768L138.971 56.5472L139.001 50.4176H141.318V67H139.404L134.478 60.8704L129.551 54.7408L129.521 60.8704L129.491 67H127.175V58.7094V58.7081ZM144.798 66.1462V65.2924L149.932 58.9273L155.065 52.5622L149.988 52.5325L144.911 52.5027V50.4176H158.244V52.1008L153.128 58.4781L148.011 64.8553L153.302 64.8851L158.593 64.9148V67H144.796V66.1462H144.798ZM159.319 66.9161C159.345 66.866 161.032 63.1328 163.068 58.6188L166.768 50.4122L167.969 50.4433L169.169 50.4744L172.403 57.6053C174.182 61.528 175.869 65.245 176.154 65.8674L176.67 66.9986H174.159L173.244 64.9406L172.33 62.8825H163.549L162.659 64.9121L161.769 66.9418L160.52 66.9743C159.832 66.9919 159.292 66.9662 159.318 66.9161H159.319ZM171.433 60.8244C171.182 60.1803 168.058 53.1211 167.992 53.0507C167.946 53.0007 167.237 54.4877 166.418 56.355C165.599 58.2223 164.809 60.0247 164.662 60.3603L164.395 60.9692H167.941C170.732 60.9692 171.476 60.938 171.433 60.8244ZM0.107814 32.5591V20.3838H4.62992V40.9079H17.383V44.7345H0.107814V32.5591ZM20.9769 32.5591V20.3838H25.499V44.7345H20.9769V32.5591ZM31.9913 32.5591V20.3838H38.2224C44.5915 20.3838 45.7782 20.4447 47.3721 20.852C49.4059 21.3716 51.1216 22.6313 51.8144 24.113C53.0715 26.8003 52.1946 30.2453 49.8727 31.7486L49.3788 32.068L50.2231 32.4698C51.2231 32.9448 52.2961 33.8974 52.8279 34.7823C53.3096 35.5847 53.6709 37.0001 53.6709 38.092C53.6709 41.8293 51.1487 44.0647 46.3086 44.6141C45.7173 44.6817 42.3859 44.7331 38.6283 44.7331H31.9913V32.5591ZM46.7335 40.8172C47.7145 40.4871 48.5818 39.7388 48.8809 38.9621C49.142 38.2855 49.1488 36.9649 48.8944 36.3763C48.6319 35.7674 48.0514 35.1598 47.4628 34.8743C46.2463 34.2857 46.0177 34.2614 41.1207 34.2113L36.512 34.1639V41.1501L41.2371 41.1122C45.7673 41.0757 45.9933 41.0635 46.7335 40.8145V40.8172ZM44.2343 30.5795C45.5184 30.4009 46.3018 30.0735 46.9527 29.4443C47.6969 28.7244 47.9689 27.8584 47.7889 26.7935C47.5792 25.5568 46.9608 24.8613 45.5738 24.3038C44.9419 24.0494 44.7728 24.0386 40.7162 24.0034L36.5134 23.9669V30.7054H39.9246C41.8014 30.7054 43.7404 30.6486 44.2343 30.5809V30.5795ZM58.5421 32.5591V20.3838H76.2801V24.2104H63.0629V30.4726H74.7727V34.1829H63.0629V40.9079H76.7442V44.7345H58.5421V32.5591ZM81.8455 32.551V20.3676L88.0197 20.4149C94.7582 20.4664 94.8475 20.4745 96.8258 21.197C99.4603 22.1591 101.263 24.067 101.974 26.6474C102.264 27.6988 102.272 30.3468 101.988 31.3995C101.394 33.6024 99.9258 35.398 97.9069 36.3925C97.4902 36.5982 97.1492 36.7822 97.1492 36.8025C97.1492 36.8228 98.3751 38.5873 99.8744 40.7225C101.372 42.8577 102.6 44.6344 102.6 44.6695C102.6 44.7047 101.516 44.7331 100.192 44.7331H97.7852L95.3049 41.1961L92.8246 37.659H86.3676V44.7331H81.8455V32.5497V32.551ZM93.5066 33.7783C95.3008 33.4346 96.5308 32.6173 97.1532 31.3522C98.3602 28.899 97.4902 25.9762 95.2359 24.9168C94.0113 24.3403 93.5851 24.2862 89.8748 24.2375L86.3676 24.1915V33.9501H89.4878C91.7651 33.9501 92.8503 33.9041 93.5066 33.7783ZM111.874 34.4725V24.2104H103.758V20.3838H124.511V24.2104H116.395V44.7345H111.872V34.4725H111.874ZM124.168 42.445C124.735 41.1853 127.196 35.7078 129.637 30.2724L134.076 20.3892H136.337L138.598 20.3919L143.989 32.3481C146.953 38.9242 149.417 44.403 149.463 44.522C149.545 44.7318 149.454 44.7385 147.163 44.7088L144.779 44.6777L144.028 42.9389C143.615 41.9822 143.066 40.7171 142.809 40.1271L142.341 39.0541H136.338C131.674 39.0541 130.311 39.0866 130.223 39.1989C130.161 39.2787 129.6 40.5574 128.974 42.0404L127.838 44.7358H123.137L124.168 42.445ZM140.68 35.1395C139.826 33.095 136.403 25.1766 136.341 25.1075C136.283 25.0412 132.367 34.0232 131.866 35.3723C131.794 35.5631 132.056 35.5752 136.326 35.5752H140.862L140.68 35.1409V35.1395ZM152.684 32.5591V20.3838H158.567C162.124 20.3838 164.863 20.4339 165.495 20.511C168.56 20.8845 171.347 22.1578 173.248 24.0521C175.459 26.255 176.568 29.0952 176.568 32.5578C176.568 35.3493 175.875 37.659 174.426 39.6887C172.526 42.353 169.27 44.1445 165.495 44.6046C164.864 44.6817 162.124 44.7318 158.567 44.7318H152.684V32.5564V32.5591ZM165.843 40.5791C168.983 39.7185 170.956 37.8187 171.771 34.8716C172.059 33.8297 172.059 31.2886 171.771 30.2467C170.956 27.2996 168.983 25.3998 165.843 24.5392C164.996 24.3065 164.583 24.2808 161.061 24.2375L157.206 24.1901V40.9255L161.061 40.8781C164.583 40.8348 164.996 40.8091 165.843 40.5764V40.5791ZM-0.00585938 7.28025V0.0911471H2.08065V12.7306H9.84889V14.4693H-0.00585938V7.28025ZM10.1966 14.4261C10.1966 14.3976 11.6485 11.1732 13.4225 7.26131L16.6483 0.149332L17.6902 0.116857L18.7321 0.0843811L21.962 7.19095C23.7386 11.1001 25.2122 14.3367 25.2379 14.3841C25.2636 14.4315 24.79 14.4707 24.1865 14.4707H23.0905L22.303 12.6724L21.5154 10.8741L17.6915 10.9052L13.8676 10.9364L13.0964 12.6751L12.3251 14.4139L11.2615 14.4477C10.677 14.4666 10.198 14.4572 10.198 14.4288L10.1966 14.4261ZM20.7469 9.19626C20.7469 9.10154 17.8228 2.47128 17.7403 2.37927C17.674 2.3062 17.0136 3.74862 14.8717 8.64149L14.6051 9.25039H17.6767C19.3653 9.25039 20.7482 9.22603 20.7482 9.19626H20.7469Z"
            fill="black" />
    </g>
</svg>
    