<svg width="49" height="40" viewBox="0 0 49 40" fill="none" xmlns="http://www.w3.org/2000/svg">
    <g opacity="0.5">
        <path id="Vector"
            d="M43.9624 10.094L24.6291 22.2343L5.29574 10.094V5.23783L24.6291 17.3781L43.9624 5.23783M43.9624 0.381714H5.29574C2.61324 0.381714 0.462402 2.54269 0.462402 5.23783V34.3746C0.462402 35.6625 0.971627 36.8977 1.87805 37.8084C2.78448 38.7191 4.01386 39.2307 5.29574 39.2307H43.9624C45.2443 39.2307 46.4737 38.7191 47.3801 37.8084C48.2865 36.8977 48.7957 35.6625 48.7957 34.3746V5.23783C48.7957 3.94991 48.2865 2.71474 47.3801 1.80404C46.4737 0.893339 45.2443 0.381714 43.9624 0.381714Z"
            fill="#61439D" />
    </g>
</svg>
    