<svg width="49" height="45" viewBox="0 0 49 45" fill="none" xmlns="http://www.w3.org/2000/svg">
    <path
        d="M0.535807 5.07737C0.840362 3.67563 1.58904 2.42406 2.65921 1.52764C3.72939 0.631224 5.05764 0.143092 6.42643 0.143188H42.6764C44.0452 0.143092 45.3734 0.631224 46.4436 1.52764C47.5138 2.42406 48.2625 3.67563 48.567 5.07737L24.5514 20.4955L0.535807 5.07737ZM0.384766 8.70105V31.2428L17.9146 19.9529L0.384766 8.70105ZM20.8086 21.8155L0.961744 34.5904C1.45167 35.6771 2.22542 36.5953 3.19289 37.2379C4.16036 37.8806 5.28174 38.2213 6.42643 38.2205H25.3247C24.8112 36.6916 24.5497 35.082 24.5514 33.4608C24.5493 31.3764 24.9827 29.3169 25.821 27.4275C26.6592 25.5382 27.882 23.8651 29.4029 22.5263L28.2942 21.8123L24.5514 24.2144L20.8086 21.8155ZM48.7181 8.70105V24.4841C47.4449 22.8266 45.8343 21.4899 44.0046 20.5723C42.1749 19.6547 40.1727 19.1796 38.1452 19.1818C36.0891 19.179 34.0593 19.6673 32.2092 20.6097L31.1882 19.9529L48.7181 8.70105Z"
        fill="#61439D" />
    <path
        d="M48.7181 33.4608C48.7181 36.4063 47.6042 39.2311 45.6214 41.3138C43.6386 43.3966 40.9493 44.5667 38.1452 44.5667C35.3411 44.5667 32.6518 43.3966 30.669 41.3138C28.6862 39.2311 27.5723 36.4063 27.5723 33.4608C27.5723 30.5153 28.6862 27.6905 30.669 25.6078C32.6518 23.525 35.3411 22.3549 38.1452 22.3549C40.9493 22.3549 43.6386 23.525 45.6214 25.6078C47.6042 27.6905 48.7181 30.5153 48.7181 33.4608ZM32.1035 33.4608C32.1035 33.8816 32.2627 34.2851 32.5459 34.5827C32.8292 34.8802 33.2134 35.0473 33.6139 35.0473H42.6764C43.077 35.0473 43.4612 34.8802 43.7445 34.5827C44.0277 34.2851 44.1869 33.8816 44.1869 33.4608C44.1869 33.04 44.0277 32.6365 43.7445 32.3389C43.4612 32.0414 43.077 31.8742 42.6764 31.8742H33.6139C33.2134 31.8742 32.8292 32.0414 32.5459 32.3389C32.2627 32.6365 32.1035 33.04 32.1035 33.4608Z"
        fill="#61439D" />
</svg>
    