<svg width="49" height="45" viewBox="0 0 49 45" fill="none" xmlns="http://www.w3.org/2000/svg">
<g opacity="0.5">
<path d="M48.5131 5.18266C48.21 3.78124 47.4581 2.5294 46.3913 1.63186C45.3206 0.738258 43.9939 0.250122 42.624 0.250122H6.37597C5.00604 0.250122 3.67941 0.738258 2.60866 1.6358C1.53791 2.5294 0.789963 3.78124 0.48291 5.18266L24.5 20.6023L48.5131 5.18266Z" fill="#61439D"/>
<path d="M0.333984 8.80823V31.3491L17.8636 20.059L0.333984 8.80823Z" fill="#61439D"/>
<path d="M31.1377 20.059L32.1573 20.7164C34.0075 19.7755 36.0388 19.2874 38.0937 19.2874C40.1486 19.2874 42.1247 19.7598 43.9513 20.677C45.7818 21.5942 47.3919 22.9327 48.6634 24.59V8.80823L31.1338 20.059H31.1377Z" fill="#61439D"/>
<path d="M29.35 22.6335L28.2398 21.921L24.4962 24.3223L20.7525 21.925L0.912109 34.6952C1.40025 35.7817 2.17575 36.699 3.14415 37.3446C4.11255 37.9862 5.23447 38.3287 6.37608 38.3287H25.2756C24.7638 36.8013 24.5001 35.1912 24.504 33.5694C24.504 31.4869 24.9371 29.4241 25.7716 27.5346C26.6101 25.645 27.8344 23.972 29.3539 22.6335H29.35Z" fill="#61439D"/>
<path d="M38.0937 22.4603C32.2557 22.4603 27.52 27.4322 27.52 33.5654C27.52 39.6986 32.2518 44.6705 38.0937 44.6705C43.9356 44.6705 48.6673 39.6986 48.6673 33.5654C48.6673 27.4322 43.9356 22.4603 38.0937 22.4603Z" fill="#61439D"/>
<path d="M34.6521 28.4912H36.9038C36.9038 28.3534 36.9117 28.2235 36.9038 28.0936C36.8605 27.3457 37.6163 26.7591 38.3446 26.9087C38.7265 26.9874 39.0178 27.1764 39.2067 27.5385C39.313 27.7393 39.313 27.9401 39.3169 28.1527C39.3169 28.2629 39.3169 28.3731 39.3169 28.4912H41.5136C41.5136 28.4912 41.5293 28.4597 41.5332 28.444C41.6513 27.7787 42.5331 27.574 43.0252 27.9558C43.3637 28.2156 43.4267 28.755 43.1709 29.0778C43.1512 29.1014 43.1354 29.1289 43.1118 29.1486C42.9858 29.2549 42.9819 29.3021 43.0724 29.432C43.0961 29.4675 43.1236 29.5029 43.1394 29.5423C43.285 29.8493 43.4267 30.1524 43.5724 30.4595C43.7535 30.8335 43.9385 31.2074 44.1196 31.5814C44.3085 31.9672 44.4975 32.353 44.6864 32.7388C44.6983 32.7663 44.7297 32.786 44.7376 32.8136C44.8045 33.0852 44.9699 33.1915 45.2494 33.16C45.3439 33.1482 45.399 33.2466 45.399 33.345C45.399 33.4434 45.3478 33.5182 45.2454 33.53C45.1234 33.5418 45.0014 33.5458 44.9069 33.5497C44.8282 33.7623 44.7612 33.967 44.6746 34.1599C44.4148 34.7464 43.9503 35.1125 43.3716 35.3409C42.8323 35.5534 42.2694 35.577 41.7065 35.4353C41.3207 35.3369 40.9742 35.1637 40.6711 34.9C40.2696 34.5496 40.0019 34.1284 39.9153 33.5969C39.9153 33.5812 39.9035 33.5655 39.8917 33.5418C39.8169 33.5418 39.7421 33.5458 39.6673 33.5418C39.5571 33.53 39.4547 33.4316 39.4547 33.3411C39.4547 33.2505 39.5571 33.156 39.6712 33.1442C39.6791 33.1442 39.6909 33.1442 39.6988 33.1442C39.9429 33.2112 40.0255 33.038 40.1082 32.8687C40.2578 32.5616 40.3956 32.2467 40.5452 31.9396C40.7302 31.5539 40.9191 31.1681 41.1081 30.7823C41.2931 30.4044 41.4742 30.0265 41.6631 29.6486C41.7301 29.5147 41.8009 29.3887 41.8639 29.2746C41.7655 29.1486 41.6828 29.0423 41.5962 28.94C41.5805 28.9203 41.5451 28.9045 41.5175 28.9045C40.7932 28.9045 40.0688 28.9045 39.3209 28.9045C39.3209 29.0699 39.3209 29.2234 39.3209 29.3809C39.3209 29.5698 39.254 29.6367 39.0689 29.6407C38.9351 29.6407 38.8052 29.6407 38.6635 29.6407V37.2383C38.7107 37.2383 38.758 37.2383 38.8052 37.2383C39.3051 37.2383 39.8051 37.2383 40.305 37.2383C40.805 37.2383 41.2065 37.4312 41.4663 37.8603C41.545 37.9941 41.5647 38.1634 41.6159 38.3405H34.656C34.6521 37.9587 34.8332 37.6831 35.1245 37.4705C35.3882 37.2777 35.6953 37.2304 36.0181 37.2343C36.4787 37.2383 36.9393 37.2343 37.3959 37.2343C37.4431 37.2343 37.4904 37.2343 37.5494 37.2343V29.6367C37.4353 29.6367 37.3211 29.6367 37.2109 29.6367C36.9707 29.6367 36.9117 29.5777 36.9117 29.3415C36.9117 29.1998 36.9117 29.0581 36.9117 28.8967C36.8605 28.8967 36.8172 28.8967 36.7739 28.8967C36.089 28.8967 35.404 28.8967 34.719 28.8967C34.6167 28.8967 34.5497 28.9242 34.5104 29.0187C34.5064 29.0305 34.4986 29.0423 34.4868 29.0502C34.3096 29.1801 34.3687 29.3218 34.4474 29.4793C34.6639 29.9202 34.8765 30.3611 35.0891 30.8059C35.2583 31.1563 35.4315 31.5027 35.6048 31.853C35.7937 32.2428 35.9866 32.6325 36.1756 33.0222C36.211 33.097 36.2622 33.1482 36.3566 33.1364C36.4196 33.1285 36.4787 33.1324 36.5417 33.1364C36.6558 33.1442 36.7346 33.2269 36.7346 33.3332C36.7346 33.4355 36.6558 33.5222 36.5417 33.534C36.4669 33.5418 36.3921 33.5379 36.3173 33.534C36.2307 33.53 36.1952 33.5576 36.1834 33.6481C36.1323 34.0378 35.9551 34.3764 35.6992 34.6559C35.1639 35.2424 34.4789 35.5219 33.6837 35.5062C32.9909 35.4904 32.3846 35.2621 31.8847 34.7661C31.6131 34.4984 31.4162 34.1914 31.3218 33.8174C31.2981 33.7269 31.2627 33.6363 31.2273 33.53C31.1643 33.53 31.0934 33.53 31.0226 33.53C30.8966 33.5222 30.8179 33.4434 30.8179 33.3293C30.8179 33.2151 30.9005 33.1167 31.0226 33.1364C31.2784 33.1797 31.3651 33.0458 31.4556 32.8372C31.6406 32.4042 31.8611 31.9829 32.0697 31.5578C32.2468 31.1917 32.4279 30.8256 32.6051 30.4634C32.8019 30.0658 32.9987 29.6722 33.1995 29.2706C32.8649 29.0069 32.7074 28.6802 32.8806 28.2629C33.0105 27.948 33.4436 27.7196 33.8097 27.7551C34.1994 27.7905 34.5497 28.0306 34.66 28.4912H34.6521ZM44.3912 33.1285C44.3676 33.0694 44.3518 33.0261 44.3321 32.9868C44.1707 32.66 44.0094 32.3372 43.8519 32.0105C43.6708 31.6405 43.4897 31.2704 43.3086 30.9004C43.1039 30.4831 42.8914 30.0698 42.7063 29.6446C42.6315 29.4675 42.5489 29.3612 42.3481 29.4124C42.2969 29.4242 42.23 29.4557 42.2103 29.495C42.0214 29.869 41.8364 30.2469 41.6553 30.6248C41.4703 31.0067 41.2813 31.3846 41.0963 31.7704C40.9388 32.0932 40.7892 32.4238 40.6357 32.7466C40.62 32.7821 40.5885 32.8096 40.5727 32.8451C40.5294 32.9356 40.49 33.0261 40.4428 33.1246H44.3873L44.3912 33.1285ZM35.7622 33.1285C35.7032 33.0261 35.652 32.9513 35.6126 32.8726C35.4315 32.5105 35.2544 32.1443 35.0733 31.7782C34.8883 31.4003 34.7033 31.0264 34.5222 30.6445C34.3726 30.3375 34.2309 30.0225 34.0852 29.7155C34.0341 29.6053 33.9711 29.5029 33.9238 29.4163C33.8254 29.4163 33.7467 29.4124 33.668 29.4163C33.6404 29.4163 33.601 29.436 33.5853 29.4596C33.5184 29.5777 33.4593 29.6997 33.3963 29.8178C33.3137 29.9871 33.231 30.1564 33.1483 30.3217C32.9554 30.7154 32.7625 31.109 32.5736 31.5027C32.424 31.8097 32.2823 32.1207 32.1366 32.4317C32.1288 32.4514 32.1169 32.4711 32.1051 32.4908C31.9988 32.6994 31.8965 32.908 31.7863 33.1246H35.7622V33.1285Z" fill="white" stroke="white" stroke-width="0.0814465" stroke-miterlimit="10"/>
<path d="M42.667 40.1237H33.5577C33.5577 39.8403 33.542 39.5687 33.5617 39.2971C33.5853 38.9939 33.8726 38.7735 34.2269 38.7499C34.2742 38.7499 34.3254 38.7499 34.3726 38.7499C36.8644 38.7499 39.3602 38.7499 41.8521 38.7499C42.1158 38.7499 42.356 38.8089 42.5292 39.0136C42.6 39.1002 42.6512 39.2262 42.6591 39.3364C42.6788 39.5962 42.667 39.8561 42.667 40.1316V40.1237Z" fill="white" stroke="white" stroke-width="0.0814465" stroke-miterlimit="10"/>
</g>
</svg>
