<svg width="49" height="45" viewBox="0 0 49 45" fill="none" xmlns="http://www.w3.org/2000/svg">
<g opacity="0.5">
    <path
        d="M48.5131 5.18266C48.21 3.78124 47.4581 2.5294 46.3913 1.63186C45.3206 0.738258 43.9939 0.250122 42.624 0.250122H6.37597C5.00604 0.250122 3.67941 0.738258 2.60866 1.6358C1.53791 2.5294 0.789963 3.78124 0.48291 5.18266L24.5 20.6023L48.5131 5.18266Z"
        fill="#61439D" />
    <path d="M0.333984 8.80823V31.3491L17.8636 20.059L0.333984 8.80823Z" fill="#61439D" />
    <path
        d="M31.1377 20.059L32.1573 20.7164C34.0075 19.7755 36.0388 19.2874 38.0937 19.2874C40.1486 19.2874 42.1247 19.7598 43.9513 20.677C45.7818 21.5942 47.3919 22.9327 48.6634 24.59V8.80823L31.1338 20.059H31.1377Z"
        fill="#61439D" />
    <path
        d="M29.35 22.6335L28.2398 21.921L24.4962 24.3223L20.7525 21.925L0.912109 34.6952C1.40025 35.7817 2.17575 36.699 3.14415 37.3446C4.11255 37.9862 5.23447 38.3287 6.37608 38.3287H25.2756C24.7638 36.8013 24.5001 35.1912 24.504 33.5694C24.504 31.4869 24.9371 29.4241 25.7716 27.5346C26.6101 25.645 27.8344 23.972 29.3539 22.6335H29.35Z"
        fill="#61439D" />
    <path
        d="M38.0937 22.4603C32.2557 22.4603 27.52 27.4322 27.52 33.5654C27.52 39.6986 32.2518 44.6705 38.0937 44.6705C43.9356 44.6705 48.6673 39.6986 48.6673 33.5654C48.6673 27.4322 43.9356 22.4603 38.0937 22.4603Z"
        fill="#61439D" />
    <path
        d="M38.4113 35.4312L35.203 39.293C35.018 39.5174 34.7385 39.6316 34.3527 39.6316C34.0654 39.6316 33.8213 39.5568 33.6166 39.4111C33.4119 39.2655 33.3135 39.1041 33.3135 38.9309C33.3135 38.797 33.3725 38.6553 33.4946 38.5175L37.2422 34.0141L33.5694 29.5657C33.4237 29.3925 33.3528 29.2311 33.3528 29.0855C33.3528 28.9044 33.4513 28.7469 33.652 28.6092C33.8528 28.4714 34.0811 28.4005 34.3449 28.4005C34.7346 28.4005 35.022 28.5147 35.203 28.743L38.4389 32.5851L41.6275 28.7587C41.8283 28.5225 42.1117 28.4044 42.4778 28.4044C42.7573 28.4044 43.0014 28.4714 43.21 28.6092C43.4187 28.7469 43.521 28.9123 43.521 29.1052C43.521 29.2351 43.4699 29.365 43.3636 29.487L39.5884 34.0259L43.3399 38.5726C43.4344 38.6868 43.4817 38.8049 43.4817 38.9348C43.4817 39.1356 43.3832 39.3048 43.1864 39.4387C42.9896 39.5725 42.7534 39.6395 42.4739 39.6395C42.0842 39.6395 41.7929 39.5253 41.6 39.3009L38.4113 35.4391V35.4312Z"
        fill="white" stroke="white" stroke-width="0.162893" stroke-miterlimit="10" />
</g>
</svg>