<svg width="49" height="45" viewBox="0 0 49 45" fill="none" xmlns="http://www.w3.org/2000/svg">
<g opacity="0.5">
<path d="M48.5146 5.18293C48.2115 3.7815 47.4596 2.52966 46.3928 1.63211C45.322 0.738505 43.9954 0.250366 42.6255 0.250366H6.37744C5.00751 0.250366 3.68088 0.738505 2.61013 1.63605C1.53938 2.52966 0.791428 3.7815 0.484375 5.18293L24.5015 20.6026L48.5146 5.18293Z" fill="#61439D"/>
<path d="M0.334961 8.80859V31.3496L17.8646 20.0594L0.334961 8.80859Z" fill="#61439D"/>
<path d="M31.1387 20.0594L32.1583 20.7168C34.0085 19.776 36.0397 19.2878 38.0946 19.2878C40.1495 19.2878 42.1257 19.7602 43.9523 20.6774C45.7828 21.5947 47.3928 22.9331 48.6644 24.5904V8.80859L31.1348 20.0594H31.1387Z" fill="#61439D"/>
<path d="M29.3514 22.6339L28.2413 21.9214L24.4976 24.3227L20.7539 21.9253L0.913574 34.6957C1.40171 35.7822 2.17722 36.6994 3.14562 37.345C4.11401 37.9867 5.23594 38.3291 6.37755 38.3291H25.2771C24.7653 36.8017 24.5016 35.1917 24.5055 33.5698C24.5055 31.4873 24.9385 29.4245 25.7731 27.535C26.6116 25.6454 27.8358 23.9724 29.3554 22.6339H29.3514Z" fill="#61439D"/>
<path d="M38.0947 22.4607C32.2567 22.4607 27.521 27.4326 27.521 33.5658C27.521 39.6991 32.2528 44.671 38.0947 44.671C43.9365 44.671 48.6683 39.6991 48.6683 33.5658C48.6683 27.4326 43.9365 22.4607 38.0947 22.4607Z" fill="#61439D"/>
<path d="M31.0952 33.5304C31.111 29.6489 34.2327 26.5508 38.1141 26.5666C41.9877 26.5823 45.1252 29.7356 45.0976 33.5816C45.0661 37.4434 41.8854 40.6045 38.063 40.5691C34.1894 40.5336 31.0834 37.3962 31.0992 33.5304H31.0952ZM33.8469 36.1325C36.138 33.8414 38.4094 31.5739 40.6729 29.3143C38.9054 28.0428 36.1301 28.3696 34.4767 30.0938C32.8706 31.7708 32.6187 34.5343 33.8469 36.1325ZM42.3027 30.9244C40.0116 33.2155 37.7402 35.4869 35.4766 37.7544C37.0001 39.0062 39.7557 38.7937 41.4484 37.2545C43.2593 35.605 43.6214 32.877 42.3066 30.9244H42.3027Z" fill="white"/>
</g>
</svg>
