<svg width="49" height="45" viewBox="0 0 49 45" fill="none" xmlns="http://www.w3.org/2000/svg">
<g opacity="0.5">
<path d="M48.5131 5.18266C48.21 3.78124 47.4581 2.5294 46.3913 1.63186C45.3206 0.738258 43.9939 0.250122 42.624 0.250122H6.37597C5.00604 0.250122 3.67941 0.738258 2.60866 1.6358C1.53791 2.5294 0.789963 3.78124 0.48291 5.18266L24.5 20.6023L48.5131 5.18266Z" fill="#61439D"/>
<path d="M0.333984 8.80823V31.3491L17.8636 20.059L0.333984 8.80823Z" fill="#61439D"/>
<path d="M31.1377 20.059L32.1573 20.7164C34.0075 19.7755 36.0388 19.2874 38.0937 19.2874C40.1486 19.2874 42.1247 19.7598 43.9513 20.677C45.7818 21.5942 47.3919 22.9327 48.6634 24.59V8.80823L31.1338 20.059H31.1377Z" fill="#61439D"/>
<path d="M29.35 22.6335L28.2398 21.921L24.4962 24.3223L20.7525 21.925L0.912109 34.6952C1.40025 35.7817 2.17575 36.699 3.14415 37.3446C4.11255 37.9862 5.23447 38.3287 6.37608 38.3287H25.2756C24.7638 36.8013 24.5001 35.1912 24.504 33.5694C24.504 31.4869 24.9371 29.4241 25.7716 27.5346C26.6101 25.645 27.8344 23.972 29.3539 22.6335H29.35Z" fill="#61439D"/>
<path d="M38.0937 22.4603C32.2557 22.4603 27.52 27.4322 27.52 33.5654C27.52 39.6986 32.2518 44.6705 38.0937 44.6705C43.9356 44.6705 48.6673 39.6986 48.6673 33.5654C48.6673 27.4322 43.9356 22.4603 38.0937 22.4603Z" fill="#61439D"/>
<path d="M31.92 39.8519C31.7231 39.7693 31.6602 39.6236 31.6602 39.415C31.668 38.6946 31.6602 37.9742 31.6602 37.2538C31.6602 36.3877 32.0144 35.6988 32.7467 35.2225C32.8923 35.128 33.0498 35.0532 33.2112 34.9902C34.1126 34.6241 35.0141 34.2659 35.9195 33.9037C36.2108 33.7856 36.3722 33.8565 36.4785 34.1518C36.6911 34.7344 36.8997 35.317 37.1123 35.8996C37.1281 35.9429 37.1477 35.9823 37.1714 36.0492C37.2658 35.8248 37.3643 35.6319 37.2225 35.4115C37.1635 35.3209 37.1359 35.2146 37.0966 35.1123C37.006 34.8603 37.1438 34.6478 37.4076 34.6438C37.8681 34.6399 38.3287 34.6399 38.7893 34.6438C39.0531 34.6438 39.1908 34.8603 39.1003 35.1123C39.0727 35.1871 39.0491 35.2658 39.0097 35.3327C38.8759 35.565 38.868 35.7933 39.0334 36.0295C39.0531 35.9862 39.0727 35.9429 39.0885 35.8957C39.2971 35.317 39.5058 34.7383 39.7144 34.1596C39.8246 33.8486 39.9821 33.7817 40.2931 33.9077C41.1946 34.2698 42.1 34.6281 43.0014 34.9902C43.6785 35.2619 44.1745 35.7224 44.4029 36.4232C44.4855 36.683 44.5288 36.9664 44.5328 37.238C44.5485 37.9663 44.5328 38.6946 44.5406 39.4268C44.5406 39.6275 44.4698 39.7693 44.2808 39.848H31.9121L31.92 39.8519ZM41.352 37.1121C41.0056 37.1121 40.6552 37.1121 40.3088 37.1121C40.0333 37.1121 39.9112 37.2341 39.9073 37.5057C39.9073 37.801 39.9073 38.1001 39.9073 38.3954C39.9073 38.6828 40.0333 38.8048 40.3246 38.8048C41.0056 38.8048 41.6906 38.8048 42.3716 38.8048C42.659 38.8048 42.7889 38.6749 42.7889 38.3954C42.7889 38.1041 42.7889 37.8128 42.7889 37.5215C42.7889 37.242 42.659 37.116 42.3834 37.116C42.0409 37.116 41.6945 37.116 41.352 37.116V37.1121Z" fill="white"/>
<path d="M41.1986 28.5541C41.2143 28.81 41.2262 29.0698 41.2458 29.3257C41.2458 29.3611 41.2616 29.4044 41.2852 29.4241C41.6159 29.6721 41.7025 30.0146 41.6671 30.4004C41.6277 30.8294 41.5135 31.2389 41.1907 31.5459C41.0529 31.6758 40.864 31.7585 40.6868 31.8372C40.6081 31.8726 40.5569 31.9081 40.5136 31.9789C40.3522 32.2584 40.1869 32.5379 40.0176 32.8135C39.683 33.3607 39.1831 33.6559 38.565 33.7622C37.8564 33.8803 37.1833 33.774 36.6282 33.3016C36.3724 33.0851 36.1913 32.7781 35.9944 32.4986C35.8724 32.3253 35.7858 32.1325 35.6795 31.9474C35.6598 31.912 35.6205 31.8687 35.585 31.8608C35.1678 31.7664 34.9001 31.4987 34.7347 31.1247C34.5694 30.7468 34.4749 30.3492 34.5851 29.9477C34.6324 29.7823 34.7505 29.6249 34.8646 29.4871C34.9591 29.369 35.026 29.1407 34.9394 29.0029C34.5379 28.3809 34.8174 27.3692 35.2347 26.9598C35.4591 26.7393 35.7307 26.6291 36.0377 26.5819C36.0889 26.574 36.1519 26.5386 36.1795 26.4953C36.5889 25.8733 37.1675 25.5229 37.8919 25.4245C38.8406 25.2946 39.6751 25.5899 40.4073 26.1843C40.738 26.452 40.923 26.8259 41.0411 27.2275C41.1671 27.6605 41.2143 28.1014 41.1947 28.5541H41.1986Z" fill="white"/>
</g>
</svg>
