<svg width="49" height="45" viewBox="0 0 49 45" fill="none" xmlns="http://www.w3.org/2000/svg">
    <path
        d="M48.514 5.18254C48.2109 3.78111 47.459 2.52928 46.3922 1.63174C45.3214 0.738136 43.9948 0.25 42.6249 0.25H6.37694C5.00701 0.25 3.68038 0.738136 2.60964 1.63568C1.53889 2.52928 0.790939 3.78111 0.483887 5.18254L24.5009 20.6021L48.514 5.18254Z"
        fill="#61439D" />
    <path d="M0.333984 8.8075V31.3484L17.8635 20.0582L0.333984 8.8075Z" fill="#61439D" />
    <path
        d="M31.1372 20.0582L32.1568 20.7157C34.007 19.7748 36.0383 19.2867 38.0932 19.2867C40.1205 19.2867 42.1242 19.7591 43.9508 20.6763C45.7813 21.5935 47.3913 22.932 48.6629 24.5893V8.8075L31.1333 20.0582H31.1372Z"
        fill="#61439D" />
    <path
        d="M29.3499 22.6323L28.2398 21.9198L24.4961 24.3211L20.7524 21.9237L0.912109 34.694C1.40024 35.7805 2.17575 36.6977 3.14415 37.3433C4.11254 37.985 5.23447 38.3275 6.37607 38.3275H25.2756C24.7638 36.8001 24.5001 35.19 24.504 33.5681C24.504 31.4857 24.937 29.4229 25.7716 27.5334C26.6101 25.6438 27.8343 23.9708 29.3538 22.6323H29.3499Z"
        fill="#61439D" />
    <path
        d="M38.0941 22.4602C32.2562 22.4602 27.5205 27.4321 27.5205 33.5653C27.5205 39.6985 32.2523 44.6704 38.0941 44.6704C43.936 44.6704 48.6678 39.6985 48.6678 33.5653C48.6678 27.4321 43.936 22.4602 38.0941 22.4602ZM39.1531 38.7813C39.1531 39.4426 38.6177 39.9741 37.9603 39.9741H37.669C37.0076 39.9741 36.4762 39.4387 36.4762 38.7813V38.4663C36.4762 37.805 37.0116 37.2736 37.669 37.2736H37.9603C38.6216 37.2736 39.1531 37.8089 39.1531 38.4663V38.7813ZM40.338 33.9393C39.6806 34.4471 39.0901 34.8998 39.0901 35.821V36.2028H36.5471V35.821C36.5471 34.0101 37.4918 33.3291 38.3225 32.7386C38.972 32.278 39.5389 31.8608 39.5389 30.9908C39.5389 30.0303 38.7988 29.4398 37.9524 29.4398C37.3265 29.4398 36.6967 29.7508 36.4132 30.3531C36.2164 30.7743 35.7991 31.042 35.3346 31.042C34.4804 31.042 33.882 30.1641 34.2324 29.3847C34.8976 27.8966 36.4368 27.1565 37.9682 27.1565C40.0506 27.1565 42.0071 28.5344 42.0071 30.9908C42.0071 32.6441 41.1332 33.3212 40.338 33.9393Z"
        fill="#61439D" />
</svg>
    