<svg width="49" height="49" viewBox="0 0 49 49" fill="none" xmlns="http://www.w3.org/2000/svg">
    <path
        d="M27.3433 1.20854C26.4684 0.742054 25.4921 0.498047 24.5007 0.498047C23.5092 0.498047 22.5329 0.742054 21.658 1.20854L3.53305 10.8751C2.56662 11.3904 1.75845 12.1587 1.19496 13.0979C0.631478 14.037 0.333875 15.1116 0.333984 16.2068V17.1554L20.6008 29.0332L24.5007 26.8643L28.4005 29.0332L48.6673 17.1554V16.2068C48.6674 15.1116 48.3698 14.037 47.8063 13.0979C47.2429 12.1587 46.4347 11.3904 45.4683 10.8751L27.3433 1.20854ZM48.6673 20.6565L31.4697 30.7369L48.6673 40.2887V20.6565ZM48.4891 43.6479L24.5007 30.3201L0.512214 43.6479C0.838475 44.956 1.59289 46.1174 2.6554 46.9472C3.71791 47.7771 5.02747 48.2277 6.37565 48.2274H42.6257C43.9738 48.2277 45.2834 47.7771 46.3459 46.9472C47.4084 46.1174 48.1628 44.956 48.4891 43.6479ZM0.333984 40.2917L17.5316 30.7369L0.333984 20.6565V40.2917Z"
        fill="#61439D" />
</svg>
    