<svg width="25" height="24" viewBox="0 0 25 24" fill="none" xmlns="http://www.w3.org/2000/svg">
<g clip-path="url(#clip0_488_34643)">
<path d="M4.15674 18H20.1567C20.7067 18 21.1567 17.55 21.1567 17C21.1567 16.45 20.7067 16 20.1567 16H4.15674C3.60674 16 3.15674 16.45 3.15674 17C3.15674 17.55 3.60674 18 4.15674 18ZM4.15674 13H20.1567C20.7067 13 21.1567 12.55 21.1567 12C21.1567 11.45 20.7067 11 20.1567 11H4.15674C3.60674 11 3.15674 11.45 3.15674 12C3.15674 12.55 3.60674 13 4.15674 13ZM3.15674 7C3.15674 7.55 3.60674 8 4.15674 8H20.1567C20.7067 8 21.1567 7.55 21.1567 7C21.1567 6.45 20.7067 6 20.1567 6H4.15674C3.60674 6 3.15674 6.45 3.15674 7Z" fill="white"/>
</g>
<defs>
<clipPath id="clip0_488_34643">
<rect width="24" height="24" fill="white" transform="translate(0.156738)"/>
</clipPath>
</defs>
</svg>
