<svg width="24" height="24" viewBox="0 0 24 24" fill="none" xmlns="http://www.w3.org/2000/svg">
<path d="M19.619 21.5H4.38086V19.5952C4.38086 18.3323 4.88256 17.1211 5.77559 16.2281C6.66862 15.335 7.87983 14.8333 9.14276 14.8333H14.857C16.12 14.8333 17.3312 15.335 18.2242 16.2281C19.1173 17.1211 19.619 18.3323 19.619 19.5952V21.5ZM11.9999 12.9286C11.2495 12.9286 10.5064 12.7808 9.81314 12.4936C9.11986 12.2064 8.48992 11.7855 7.9593 11.2549C7.42868 10.7243 7.00777 10.0943 6.7206 9.40105C6.43343 8.70776 6.28562 7.9647 6.28562 7.21429C6.28562 6.46387 6.43343 5.72081 6.7206 5.02752C7.00777 4.33423 7.42868 3.7043 7.9593 3.17368C8.48992 2.64306 9.11986 2.22214 9.81314 1.93497C10.5064 1.6478 11.2495 1.5 11.9999 1.5C13.5154 1.5 14.9689 2.10204 16.0405 3.17368C17.1122 4.24531 17.7142 5.69876 17.7142 7.21429C17.7142 8.72981 17.1122 10.1833 16.0405 11.2549C14.9689 12.3265 13.5154 12.9286 11.9999 12.9286Z" fill="white"/>
</svg>
