<svg width="28" height="26" viewBox="0 0 28 26" fill="none" xmlns="http://www.w3.org/2000/svg">
    <path fill-rule="evenodd" clip-rule="evenodd"
        d="M12.6125 14.4765C12.6125 15.2431 13.2339 15.8646 14.0006 15.8646C14.7672 15.8646 15.3887 15.2431 15.3887 14.4765V10.3121C15.3887 9.54544 14.7672 8.92395 14.0006 8.92395C13.2339 8.92395 12.6125 9.54544 12.6125 10.3121V14.4765ZM15.3887 18.6253C15.3887 17.8586 14.7672 17.2372 14.0006 17.2372C13.2339 17.2372 12.6125 17.8586 12.6125 18.6253V18.6408C12.6125 19.4075 13.2339 20.029 14.0006 20.029C14.7672 20.029 15.3887 19.4075 15.3887 18.6408V18.6253ZM10.36 2.90138C11.9467 0.0454069 16.054 0.0454069 17.6407 2.90138L26.8037 19.3947C28.3456 22.1704 26.3385 25.5814 23.1633 25.5814H4.83737C1.66208 25.5814 -0.345005 22.1704 1.19704 19.3947L10.36 2.90138Z"
        fill="#AD3459" />
</svg>